<svg width="29" height="21" viewBox="0 0 29 21" fill="none" xmlns="http://www.w3.org/2000/svg">
<path d="M20.3 20.2502C18.047 20.2502 16.1105 19.408 14.4903 17.7236C12.8702 16.0391 11.9216 13.9184 11.6445 11.3614H0V9.13913H11.6445C11.7566 7.94506 12.0853 6.74284 12.6305 5.53247C13.1782 4.32061 13.9625 3.30061 14.9833 2.47247H3.86667V0.250244H20.3C22.7076 0.250244 24.7596 1.22506 26.4557 3.17469C28.1519 5.12136 29 7.47765 29 10.2436C29 13.0095 28.1519 15.3688 26.4557 17.3214C24.7596 19.2739 22.7076 20.2502 20.3 20.2502ZM20.3 18.028C22.1586 18.028 23.751 17.2658 25.0773 15.7414C26.4035 14.2169 27.0667 12.3865 27.0667 10.2502C27.0667 8.11395 26.4035 6.28358 25.0773 4.75913C23.751 3.23469 22.1586 2.47247 20.3 2.47247C18.4414 2.47247 16.849 3.23469 15.5227 4.75913C14.1965 6.28358 13.5333 8.11395 13.5333 10.2502C13.5333 12.3865 14.1965 14.2169 15.5227 15.7414C16.849 17.2658 18.4414 18.028 20.3 18.028ZM5.8 20.2502V18.028H9.66667V20.2502H5.8Z" fill="black"/>
</svg>
