<svg width="71" height="85" viewBox="0 0 71 85" fill="none" xmlns="http://www.w3.org/2000/svg">
<g clip-path="url(#clip0_653_5192)">
<path d="M70.4157 8.67166C70.3735 8.63329 62.0336 0.936929 62.0336 0.936929C61.7148 0.64091 61.3851 0.334961 60.7694 0.334961H27.1941C26.2135 0.334961 25.4155 1.10694 25.4155 2.05592V7.34065L13.582 9.30355C12.6335 9.46458 11.9956 10.343 12.1599 11.2599L12.7605 14.6484C8.91414 15.9009 4.96518 17.1921 1.15295 18.5172C0.252137 18.8359 -0.220595 19.8051 0.100846 20.682L7.68412 41.0808C7.83666 41.4912 8.23645 41.7469 8.66286 41.7469C8.77963 41.7469 8.89861 41.7277 9.01481 41.6872C9.55536 41.499 9.83589 40.9226 9.64147 40.3995L2.17039 20.3024C5.76199 19.0581 9.48144 17.8402 13.1164 16.6563L16.6902 36.8173L20.8023 60.0362C20.9509 60.8558 21.6954 61.439 22.5357 61.439C22.6309 61.439 22.7274 61.4315 22.8242 61.416L33.9617 59.5665L42.6648 58.1229L29.5754 62.6755L19.2534 66.2668L11.237 44.6908C11.0428 44.1678 10.4472 43.8963 9.90647 44.0843C9.36593 44.2723 9.0854 44.8488 9.27968 45.3718L17.4097 67.2544C17.6697 67.9425 18.3434 68.3703 19.0555 68.3703C19.2523 68.3703 19.4521 68.3376 19.6468 68.2687L30.2789 64.5697L54.4208 56.173L59.0329 55.408H69.2213C70.202 55.408 70.9999 54.6343 70.9999 53.6832V9.80569C71 9.20332 70.6622 8.89603 70.4157 8.67166ZM67.6601 8.90998H62.4558L62.3268 8.91052C62.0776 8.91213 61.4942 8.91629 61.3463 8.77405C61.3121 8.74117 61.2722 8.63141 61.2722 8.42758L61.2601 3.00436L67.6601 8.90998ZM68.92 53.3949H27.4956V33.7811C27.4956 33.2253 27.03 32.7747 26.4556 32.7747C25.8812 32.7747 25.4155 33.2253 25.4155 33.7811V53.6829C25.4155 54.6339 26.2135 55.4078 27.1941 55.4078H46.7208L33.6101 57.5824L22.7962 59.3783L18.7403 36.477L14.2655 11.2322L25.4154 9.38272V29.1113C25.4154 29.6671 25.8811 30.1177 26.4554 30.1177C27.0298 30.1177 27.4955 29.6671 27.4955 29.1113V2.34765H59.1785L59.1921 8.42986C59.1921 9.16709 59.4238 9.76342 59.8808 10.2025C60.5829 10.877 61.5753 10.924 62.1915 10.924C62.2444 10.924 62.2946 10.9236 62.3416 10.9233L68.92 10.9229V53.3949Z" fill="#A5C4D4"/>
<path d="M32.5098 15.9615C32.5098 16.5173 32.9754 16.9679 33.5498 16.9679H63.286C63.8604 16.9679 64.3261 16.5173 64.3261 15.9615C64.3261 15.4057 63.8604 14.9551 63.286 14.9551H33.5498C32.9754 14.9551 32.5098 15.4057 32.5098 15.9615Z" fill="#A5C4D4"/>
<path d="M63.286 22.1055H33.5498C32.9754 22.1055 32.5098 22.5561 32.5098 23.1119C32.5098 23.6677 32.9754 24.1183 33.5498 24.1183H63.286C63.8604 24.1183 64.3261 23.6677 64.3261 23.1119C64.3261 22.5561 63.8604 22.1055 63.286 22.1055Z" fill="#A5C4D4"/>
<path d="M63.286 29.2549H33.5498C32.9754 29.2549 32.5098 29.7055 32.5098 30.2613C32.5098 30.8171 32.9754 31.2677 33.5498 31.2677H63.286C63.8604 31.2677 64.3261 30.8171 64.3261 30.2613C64.3261 29.7055 63.8604 29.2549 63.286 29.2549Z" fill="#A5C4D4"/>
<path d="M63.286 36.4053H33.5498C32.9754 36.4053 32.5098 36.8559 32.5098 37.4117C32.5098 37.9675 32.9754 38.4181 33.5498 38.4181H63.286C63.8604 38.4181 64.3261 37.9675 64.3261 37.4117C64.3261 36.8559 63.8604 36.4053 63.286 36.4053Z" fill="#A5C4D4"/>
<path d="M63.286 43.5547H33.5498C32.9754 43.5547 32.5098 44.0053 32.5098 44.5611C32.5098 45.1169 32.9754 45.5675 33.5498 45.5675H63.286C63.8604 45.5675 64.3261 45.1169 64.3261 44.5611C64.3261 44.0053 63.8604 43.5547 63.286 43.5547Z" fill="#A5C4D4"/>
</g>
<path d="M25.4851 82.982C33.2876 82.982 39.6128 76.6568 39.6128 68.8543C39.6128 61.0518 33.2876 54.7266 25.4851 54.7266C17.6826 54.7266 11.3574 61.0518 11.3574 68.8543C11.3574 76.6568 17.6826 82.982 25.4851 82.982Z" fill="#A5C4D4"/>
<path d="M23.4668 62.127H27.5033V75.5819H23.4668V62.127Z" fill="white"/>
<path d="M18.7578 66.8359H32.2128V70.8724H18.7578V66.8359Z" fill="white"/>
<defs>
<clipPath id="clip0_653_5192">
<rect width="71" height="68.7043" fill="white"/>
</clipPath>
</defs>
</svg>
