<svg width="22" height="27" viewBox="0 0 22 27" fill="none" xmlns="http://www.w3.org/2000/svg">
<path d="M4.4 0H17.6C18.767 0 19.8861 0.449153 20.7113 1.24865C21.5364 2.04815 22 3.1325 22 4.26316V22.7368C22 23.8675 21.5364 24.9519 20.7113 25.7514C19.8861 26.5508 18.767 27 17.6 27H4.4C3.23305 27 2.11389 26.5508 1.28873 25.7514C0.46357 24.9519 0 23.8675 0 22.7368V4.26316C0 3.1325 0.46357 2.04815 1.28873 1.24865C2.11389 0.449153 3.23305 0 4.4 0ZM4.4 1.42105C3.62203 1.42105 2.87593 1.72049 2.32582 2.25349C1.77571 2.78648 1.46667 3.50938 1.46667 4.26316V22.7368C1.46667 23.4906 1.77571 24.2135 2.32582 24.7465C2.87593 25.2795 3.62203 25.5789 4.4 25.5789H17.6C18.378 25.5789 19.1241 25.2795 19.6742 24.7465C20.2243 24.2135 20.5333 23.4906 20.5333 22.7368V4.26316C20.5333 3.50938 20.2243 2.78648 19.6742 2.25349C19.1241 1.72049 18.378 1.42105 17.6 1.42105H13.2V10.9421L8.8 7.95789L4.4 10.9421V1.42105ZM11.7333 1.42105H5.86667V8.21368L8.8 6.22421L11.7333 8.21368V1.42105Z" fill="black"/>
</svg>
