<svg width="34" height="27" viewBox="0 0 34 27" fill="none" xmlns="http://www.w3.org/2000/svg">
<g clip-path="url(#clip0_653_21416)">
<path d="M7.66078 26.191C7.66824 26.1959 7.6782 26.1934 7.68566 26.1983C7.74426 26.2306 7.81001 26.2484 7.87722 26.2503C7.91421 26.2502 7.95102 26.2453 7.98668 26.2357L16.9992 23.8258L26.0117 26.2357C26.0473 26.2453 26.0841 26.2502 26.1211 26.2503C26.1881 26.2481 26.2536 26.2299 26.3119 26.1975C26.3201 26.1934 26.3293 26.195 26.3367 26.1902L33.8001 21.7214C33.8773 21.6751 33.937 21.6054 33.9699 21.5228C34.0028 21.4402 34.0073 21.3493 33.9826 21.264L29.8495 7.04523C29.8325 6.98611 29.8019 6.93154 29.7603 6.88564C29.7186 6.83974 29.6668 6.8037 29.6088 6.78024C29.5509 6.75677 29.4883 6.74649 29.4257 6.75017C29.3631 6.75385 29.3021 6.7714 29.2475 6.80148L25.1326 9.06348C25.0425 9.11922 24.9777 9.20676 24.9516 9.308C24.9255 9.40923 24.9401 9.51643 24.9924 9.60741C25.0447 9.69839 25.1307 9.76621 25.2325 9.79684C25.3344 9.82747 25.4444 9.81857 25.5398 9.77198L29.196 7.76105L33.0994 21.1884L26.4528 25.1689L24.8739 12.7937C24.8603 12.6867 24.8038 12.5894 24.717 12.5232C24.6301 12.457 24.52 12.4273 24.4108 12.4406C24.3016 12.454 24.2022 12.5093 24.1347 12.5944C24.0671 12.6795 24.0368 12.7874 24.0504 12.8944L25.6319 25.2924L17.4138 23.0945V20.8764C17.4138 20.7687 17.3701 20.6653 17.2924 20.5892C17.2146 20.513 17.1091 20.4702 16.9992 20.4702C16.8892 20.4702 16.7837 20.513 16.706 20.5892C16.6282 20.6653 16.5845 20.7687 16.5845 20.8764V23.0945L8.36566 25.2924L9.94707 12.8944C9.95383 12.8414 9.94986 12.7877 9.93541 12.7362C9.92095 12.6847 9.89629 12.6366 9.86283 12.5944C9.82938 12.5523 9.78778 12.517 9.74041 12.4906C9.69304 12.4642 9.64083 12.4473 9.58676 12.4406C9.53269 12.434 9.47782 12.4379 9.42528 12.4521C9.37274 12.4662 9.32357 12.4904 9.28056 12.5232C9.23755 12.556 9.20156 12.5967 9.17463 12.6431C9.1477 12.6895 9.13036 12.7407 9.12361 12.7937L7.54551 25.1689L0.898927 21.1892L4.80229 7.76267L8.45854 9.77361C8.55391 9.8202 8.66391 9.8291 8.76579 9.79847C8.86767 9.76784 8.95365 9.70002 9.00594 9.60904C9.05822 9.51805 9.07283 9.41086 9.04673 9.30962C9.02063 9.20839 8.95582 9.12085 8.86571 9.06511L4.75005 6.80229C4.69554 6.77171 4.6346 6.75377 4.57191 6.74984C4.50922 6.74592 4.44645 6.75611 4.3884 6.77965C4.33036 6.80318 4.27859 6.83942 4.23706 6.8856C4.19553 6.93178 4.16535 6.98666 4.14883 7.04605L0.0157567 21.2648C-0.00895651 21.3501 -0.0045027 21.441 0.0284384 21.5236C0.0613794 21.6062 0.120998 21.6759 0.198196 21.7222L7.66078 26.191Z" fill="black"/>
<path d="M16.7188 19.2367C16.795 19.3056 16.8946 19.344 16.9982 19.3445C17.1018 19.3449 17.2018 19.3074 17.2786 19.2392C17.5547 18.993 24.0487 13.1544 24.0487 7.15649C24.0487 3.28331 20.9531 0.250244 17 0.250244C13.0468 0.250244 9.95117 3.28331 9.95117 7.15649C9.95117 13.0504 16.4427 18.9865 16.7188 19.2367ZM17 1.06274C20.5451 1.06274 23.2195 3.68224 23.2195 7.15649C23.2195 12.1103 18.2497 17.1803 17.0024 18.3747C15.7577 17.1665 10.7804 12.0299 10.7804 7.15649C10.7804 3.68224 13.4548 1.06274 17 1.06274Z" fill="black"/>
<path d="M20.731 7.15649C20.731 5.14068 19.0567 3.50024 16.9993 3.50024C14.9419 3.50024 13.2676 5.14068 13.2676 7.15649C13.2676 9.17231 14.9419 10.8127 16.9993 10.8127C19.0567 10.8127 20.731 9.17231 20.731 7.15649ZM16.9993 10.0002C15.3988 10.0002 14.0968 8.72462 14.0968 7.15649C14.0968 5.58837 15.3988 4.31274 16.9993 4.31274C18.5998 4.31274 19.9017 5.58837 19.9017 7.15649C19.9017 8.72462 18.5998 10.0002 16.9993 10.0002Z" fill="black"/>
</g>
<defs>
<clipPath id="clip0_653_21416">
<rect width="34" height="26" fill="white" transform="translate(0 0.250244)"/>
</clipPath>
</defs>
</svg>
