<svg width="32" height="29" viewBox="0 0 32 29" fill="none" xmlns="http://www.w3.org/2000/svg">
<path d="M0.75 0.75V0C0.551088 0 0.360322 0.0790178 0.21967 0.21967C0.0790176 0.360322 0 0.551088 0 0.75H0.75ZM17.25 0.75H18C18 0.551088 17.921 0.360322 17.7803 0.21967C17.6397 0.0790178 17.4489 0 17.25 0V0.75ZM17.25 9.75V9C17.0511 9 16.8603 9.07902 16.7197 9.21967C16.579 9.36032 16.5 9.55109 16.5 9.75H17.25ZM0.75 1.5H17.25V0H0.75V1.5ZM16.5 0.75V24.75H18V0.75H16.5ZM1.5 21.75V0.75H0V21.75H1.5ZM17.25 10.5H24.75V9H17.25V10.5ZM30 15.75V21.75H31.5V15.75H30ZM18 24.75V9.75H16.5V24.75H18ZM26.34 26.34C25.9181 26.7614 25.3463 26.998 24.75 26.998C24.1537 26.998 23.5819 26.7614 23.16 26.34L22.098 27.402C22.4462 27.7503 22.8597 28.0266 23.3147 28.2152C23.7697 28.4037 24.2575 28.5007 24.75 28.5007C25.2425 28.5007 25.7303 28.4037 26.1853 28.2152C26.6403 28.0266 27.0538 27.7503 27.402 27.402L26.34 26.34ZM23.16 23.16C23.5819 22.7386 24.1537 22.502 24.75 22.502C25.3463 22.502 25.9181 22.7386 26.34 23.16L27.402 22.098C27.0538 21.7497 26.6403 21.4734 26.1853 21.2848C25.7303 21.0963 25.2425 20.9993 24.75 20.9993C24.2575 20.9993 23.7697 21.0963 23.3147 21.2848C22.8597 21.4734 22.4462 21.7497 22.098 22.098L23.16 23.16ZM8.34 26.34C7.91812 26.7614 7.34625 26.998 6.75 26.998C6.15375 26.998 5.58188 26.7614 5.16 26.34L4.098 27.402C4.44623 27.7503 4.85967 28.0266 5.31471 28.2152C5.76974 28.4037 6.25746 28.5007 6.75 28.5007C7.24254 28.5007 7.73026 28.4037 8.18529 28.2152C8.64033 28.0266 9.05377 27.7503 9.402 27.402L8.34 26.34ZM5.16 23.16C5.58188 22.7386 6.15375 22.502 6.75 22.502C7.34625 22.502 7.91812 22.7386 8.34 23.16L9.402 22.098C9.05377 21.7497 8.64033 21.4734 8.18529 21.2848C7.73026 21.0963 7.24254 20.9993 6.75 20.9993C6.25746 20.9993 5.76974 21.0963 5.31471 21.2848C4.85967 21.4734 4.44623 21.7497 4.098 22.098L5.16 23.16ZM26.34 23.16C26.781 23.598 27 24.1725 27 24.75H28.5C28.5 23.7915 28.134 22.83 27.402 22.098L26.34 23.16ZM27 24.75C27 25.3275 26.781 25.902 26.34 26.34L27.402 27.402C27.7502 27.0537 28.0264 26.6402 28.2148 26.1852C28.4032 25.7302 28.5001 25.2425 28.5 24.75H27ZM21.75 24H17.25V25.5H21.75V24ZM23.16 26.34C22.7379 25.9184 22.5005 25.3465 22.5 24.75H21C21 25.7085 21.366 26.67 22.098 27.402L23.16 26.34ZM22.5 24.75C22.5 24.1725 22.719 23.598 23.16 23.16L22.098 22.098C21.7498 22.4463 21.4736 22.8598 21.2852 23.3148C21.0968 23.7698 20.9999 24.2575 21 24.75H22.5ZM5.16 26.34C4.73792 25.9184 4.50052 25.3465 4.5 24.75H3C3 25.7085 3.366 26.67 4.098 27.402L5.16 26.34ZM4.5 24.75C4.5 24.1725 4.719 23.598 5.16 23.16L4.098 22.098C3.7498 22.4463 3.47362 22.8598 3.28522 23.3148C3.09683 23.7698 2.99991 24.2575 3 24.75H4.5ZM17.25 24H9.75V25.5H17.25V24ZM8.34 23.16C8.781 23.598 9 24.1725 9 24.75H10.5C10.5 23.7915 10.134 22.83 9.402 22.098L8.34 23.16ZM9 24.75C9 25.3275 8.781 25.902 8.34 26.34L9.402 27.402C9.7502 27.0537 10.0264 26.6402 10.2148 26.1852C10.4032 25.7302 10.5001 25.2425 10.5 24.75H9ZM30 21.75C30 22.3467 29.7629 22.919 29.341 23.341C28.919 23.7629 28.3467 24 27.75 24V25.5C28.7446 25.5 29.6984 25.1049 30.4016 24.4016C31.1049 23.6984 31.5 22.7446 31.5 21.75H30ZM24.75 10.5C26.1424 10.5 27.4777 11.0531 28.4623 12.0377C29.4469 13.0223 30 14.3576 30 15.75H31.5C31.5 13.9598 30.7888 12.2429 29.523 10.977C28.2571 9.71116 26.5402 9 24.75 9V10.5ZM0 21.75C0 22.7446 0.395088 23.6984 1.09835 24.4016C1.80161 25.1049 2.75544 25.5 3.75 25.5V24C3.15326 24 2.58097 23.7629 2.15901 23.341C1.73705 22.919 1.5 22.3467 1.5 21.75H0Z" fill="black"/>
<path d="M0.75 8.25H5.25M0.75 14.25H8.25" stroke="black" stroke-linecap="round" stroke-linejoin="round"/>
</svg>
