<svg width="28" height="33" viewBox="0 0 28 33" fill="none" xmlns="http://www.w3.org/2000/svg">
<path d="M6.06764 0.559448H21.8272C23.2204 0.559448 24.5566 1.09569 25.5418 2.05022C26.5269 3.00474 27.0804 4.29936 27.0804 5.64926V27.7051C27.0804 29.055 26.5269 30.3496 25.5418 31.3041C24.5566 32.2587 23.2204 32.7949 21.8272 32.7949H6.06764C4.67441 32.7949 3.33824 32.2587 2.35308 31.3041C1.36791 30.3496 0.814453 29.055 0.814453 27.7051V5.64926C0.814453 4.29936 1.36791 3.00474 2.35308 2.05022C3.33824 1.09569 4.67441 0.559448 6.06764 0.559448ZM6.06764 2.25605C5.13882 2.25605 4.24804 2.61355 3.59126 3.2499C2.93449 3.88625 2.56552 4.74932 2.56552 5.64926V27.7051C2.56552 28.605 2.93449 29.4681 3.59126 30.1045C4.24804 30.7408 5.13882 31.0983 6.06764 31.0983H21.8272C22.756 31.0983 23.6468 30.7408 24.3036 30.1045C24.9604 29.4681 25.3293 28.605 25.3293 27.7051V5.64926C25.3293 4.74932 24.9604 3.88625 24.3036 3.2499C23.6468 2.61355 22.756 2.25605 21.8272 2.25605H16.574V13.6233L11.3208 10.0604L6.06764 13.6233V2.25605ZM14.823 2.25605H7.8187V10.3658L11.3208 7.99057L14.823 10.3658V2.25605Z" fill="black"/>
</svg>
