<svg width="35" height="25" viewBox="0 0 35 25" fill="none" xmlns="http://www.w3.org/2000/svg">
<path d="M24.5547 24.4141C21.8648 24.4141 19.5527 23.4086 17.6185 21.3975C15.6842 19.3865 14.5516 16.8545 14.2208 13.8016H0.318359V11.1485H14.2208C14.3546 9.7229 14.747 8.28756 15.398 6.84249C16.0519 5.39565 16.9883 4.17787 18.2071 3.18914H4.9348V0.536011H24.5547C27.4292 0.536011 29.879 1.69985 31.904 4.02752C33.9291 6.35166 34.9416 9.16486 34.9416 12.4671C34.9416 15.7694 33.9291 18.5861 31.904 20.9173C29.879 23.2485 27.4292 24.4141 24.5547 24.4141ZM24.5547 21.761C26.7736 21.761 28.6748 20.851 30.2583 19.0309C31.8417 17.2109 32.6334 15.0256 32.6334 12.4751C32.6334 9.92453 31.8417 7.73925 30.2583 5.9192C28.6748 4.09916 26.7736 3.18914 24.5547 3.18914C22.3357 3.18914 20.4345 4.09916 18.851 5.9192C17.2676 7.73925 16.4759 9.92453 16.4759 12.4751C16.4759 15.0256 17.2676 17.2109 18.851 19.0309C20.4345 20.851 22.3357 21.761 24.5547 21.761ZM7.24302 24.4141V21.761H11.8595V24.4141H7.24302Z" fill="black"/>
</svg>
