<svg width="41" height="33" viewBox="0 0 41 33" fill="none" xmlns="http://www.w3.org/2000/svg">
<g clip-path="url(#clip0_1226_2673)">
<path d="M9.70973 31.7823C9.71864 31.7881 9.73052 31.7852 9.73943 31.791C9.8094 31.8296 9.88789 31.8509 9.96814 31.8531C10.0123 31.853 10.0563 31.8472 10.0988 31.8357L20.8589 28.9585L31.619 31.8357C31.6615 31.8472 31.7055 31.853 31.7496 31.8531C31.8296 31.8505 31.9078 31.8288 31.9774 31.7901C31.9873 31.7852 31.9982 31.7872 32.0071 31.7813L40.9177 26.4461C41.0098 26.3908 41.081 26.3075 41.1204 26.2089C41.1597 26.1103 41.165 26.0018 41.1355 25.8999L36.201 8.92408C36.1806 8.85349 36.1442 8.78834 36.0944 8.73354C36.0447 8.67874 35.9829 8.63571 35.9137 8.6077C35.8445 8.57969 35.7697 8.56741 35.695 8.57181C35.6202 8.5762 35.5475 8.59715 35.4822 8.63307L30.5695 11.3337C30.4619 11.4002 30.3845 11.5047 30.3534 11.6256C30.3222 11.7465 30.3396 11.8745 30.4021 11.9831C30.4645 12.0917 30.5671 12.1727 30.6888 12.2092C30.8104 12.2458 30.9417 12.2352 31.0556 12.1796L35.4208 9.77869L40.0811 25.8097L32.1457 30.562L30.2606 15.7872C30.2443 15.6594 30.1769 15.5433 30.0732 15.4642C29.9695 15.3852 29.838 15.3497 29.7076 15.3657C29.5773 15.3816 29.4587 15.4477 29.378 15.5493C29.2973 15.6509 29.2612 15.7797 29.2774 15.9075L31.1655 30.7094L21.3539 28.0855V25.4372C21.3539 25.3086 21.3018 25.1852 21.2089 25.0943C21.1161 25.0033 20.9902 24.9522 20.8589 24.9522C20.7276 24.9522 20.6017 25.0033 20.5089 25.0943C20.416 25.1852 20.3639 25.3086 20.3639 25.4372V28.0855L10.5513 30.7094L12.4394 15.9075C12.4474 15.8442 12.4427 15.78 12.4254 15.7186C12.4082 15.6571 12.3787 15.5996 12.3388 15.5493C12.2988 15.499 12.2492 15.4569 12.1926 15.4254C12.1361 15.3939 12.0737 15.3736 12.0092 15.3657C11.9446 15.3578 11.8791 15.3624 11.8164 15.3793C11.7537 15.3962 11.6949 15.4251 11.6436 15.4642C11.5922 15.5034 11.5493 15.552 11.5171 15.6074C11.485 15.6629 11.4643 15.7239 11.4562 15.7872L9.57211 30.562L1.63671 25.8107L6.29696 9.78063L10.6622 12.1815C10.776 12.2371 10.9074 12.2478 11.029 12.2112C11.1506 12.1746 11.2533 12.0936 11.3157 11.985C11.3781 11.8764 11.3956 11.7484 11.3644 11.6276C11.3333 11.5067 11.2559 11.4022 11.1483 11.3356L6.23459 8.63404C6.16951 8.59752 6.09675 8.5761 6.02191 8.57141C5.94706 8.56673 5.87212 8.5789 5.80282 8.60699C5.73352 8.63509 5.67171 8.67836 5.62213 8.7335C5.57255 8.78863 5.53651 8.85416 5.51679 8.92505L0.582289 25.9009C0.552783 26.0028 0.558101 26.1113 0.597429 26.2099C0.636758 26.3085 0.707937 26.3918 0.800104 26.447L9.70973 31.7823Z" fill="black"/>
<path d="M20.5233 23.4797C20.6142 23.5619 20.7332 23.6078 20.8569 23.6084C20.9806 23.6089 21.1 23.5641 21.1916 23.4827C21.5213 23.1887 29.2745 16.218 29.2745 9.05706C29.2745 4.43284 25.5786 0.811646 20.8589 0.811646C16.1393 0.811646 12.4434 4.43284 12.4434 9.05706C12.4434 16.0938 20.1936 23.181 20.5233 23.4797ZM20.8589 1.78169C25.0915 1.78169 28.2845 4.90913 28.2845 9.05706C28.2845 14.9714 22.351 21.0246 20.8619 22.4505C19.3758 21.0081 13.4334 14.8754 13.4334 9.05706C13.4334 4.90913 16.6264 1.78169 20.8589 1.78169Z" fill="black"/>
<path d="M25.3139 9.05699C25.3139 6.6503 23.315 4.69177 20.8586 4.69177C18.4023 4.69177 16.4033 6.6503 16.4033 9.05699C16.4033 11.4637 18.4023 13.4222 20.8586 13.4222C23.315 13.4222 25.3139 11.4637 25.3139 9.05699ZM20.8586 12.4522C18.9478 12.4522 17.3934 10.9292 17.3934 9.05699C17.3934 7.1848 18.9478 5.66182 20.8586 5.66182C22.7695 5.66182 24.3239 7.1848 24.3239 9.05699C24.3239 10.9292 22.7695 12.4522 20.8586 12.4522Z" fill="black"/>
</g>
<defs>
<clipPath id="clip0_1226_2673">
<rect width="40.1824" height="31.3619" fill="white" transform="translate(0.5625 0.811646)"/>
</clipPath>
</defs>
</svg>
