<svg width="48" height="47" viewBox="0 0 48 47" fill="none" xmlns="http://www.w3.org/2000/svg">
<path d="M8.3797 29.3278C7.33256 28.3464 6.60161 27.0752 6.28015 25.6765C5.95869 24.2778 6.06131 22.815 6.57491 21.4749C7.08851 20.1348 7.98979 18.9781 9.16371 18.1525C10.3376 17.3269 11.7309 16.8698 13.1658 16.8396C14.6006 16.8094 16.0119 17.2075 17.2195 17.9829C18.4272 18.7584 19.3763 19.8761 19.9458 21.1935C20.5154 22.5108 20.6794 23.9679 20.4171 25.3789C20.1548 26.7899 19.478 28.0907 18.4731 29.1153" stroke="black" stroke-width="0.596953" stroke-linecap="round" stroke-linejoin="round"/>
<path d="M8.39062 29.2521C8.85237 27.1161 10.7449 25.628 13.0614 25.5824C15.3779 25.5359 17.576 26.9424 18.485 29.0523" stroke="black" stroke-width="0.596953" stroke-linecap="round" stroke-linejoin="round"/>
<path d="M13.2959 24.8907C14.8185 24.8907 16.0528 23.6564 16.0528 22.1338C16.0528 20.6113 14.8185 19.377 13.2959 19.377C11.7734 19.377 10.5391 20.6113 10.5391 22.1338C10.5391 23.6564 11.7734 24.8907 13.2959 24.8907Z" stroke="black" stroke-width="0.596953" stroke-linecap="round" stroke-linejoin="round"/>
<path d="M19.6562 20.4731L27.2692 15.1349M20.6205 26.8812L28.2334 32.2204M29.3102 18.2206C28.2633 17.2391 27.5326 15.9678 27.2114 14.5691C26.8901 13.1704 26.993 11.7077 27.5068 10.3677C28.0205 9.02772 28.9219 7.87121 30.0959 7.04578C31.2699 6.22035 32.6632 5.76345 34.098 5.7334C35.5327 5.70334 36.944 6.10149 38.1515 6.87702C39.359 7.65256 40.308 8.77031 40.8775 10.0876C41.4469 11.4049 41.6109 12.862 41.3486 14.2729C41.0862 15.6839 40.4094 16.9846 39.4045 18.0092" stroke="black" stroke-width="0.596953" stroke-linecap="round" stroke-linejoin="round"/>
<path d="M29.3223 18.145C29.783 16.009 31.6766 14.5209 33.9931 14.4753C36.3086 14.4297 38.5077 15.8363 39.4156 17.9452" stroke="black" stroke-width="0.596953" stroke-linecap="round" stroke-linejoin="round"/>
<path d="M34.2286 13.7846C35.7511 13.7846 36.9854 12.5503 36.9854 11.0278C36.9854 9.50517 35.7511 8.27087 34.2286 8.27087C32.706 8.27087 31.4717 9.50517 31.4717 11.0278C31.4717 12.5503 32.706 13.7846 34.2286 13.7846Z" stroke="black" stroke-width="0.596953" stroke-linecap="round" stroke-linejoin="round"/>
<path d="M29.4314 41.6231C28.3845 40.6415 27.6538 39.3703 27.3326 37.9716C27.0114 36.5729 27.1142 35.1102 27.628 33.7702C28.1418 32.4302 29.0432 31.2737 30.2172 30.4482C31.3911 29.6228 32.7844 29.1659 34.2192 29.1359C35.654 29.1058 37.0652 29.504 38.2727 30.2795C39.4802 31.055 40.4293 32.1728 40.9987 33.4901C41.5682 34.8074 41.7322 36.2645 41.4698 37.6754C41.2075 39.0863 40.5307 40.3871 39.5258 41.4116" stroke="black" stroke-width="0.596953" stroke-linecap="round" stroke-linejoin="round"/>
<path d="M29.4434 41.5472C29.9041 39.4111 31.7977 37.9231 34.1141 37.8775C36.4297 37.8309 38.6288 39.2375 39.5377 41.3464" stroke="black" stroke-width="0.596953" stroke-linecap="round" stroke-linejoin="round"/>
<path d="M34.3497 37.1861C35.8722 37.1861 37.1065 35.9518 37.1065 34.4292C37.1065 32.9067 35.8722 31.6724 34.3497 31.6724C32.8271 31.6724 31.5928 32.9067 31.5928 34.4292C31.5928 35.9518 32.8271 37.1861 34.3497 37.1861Z" stroke="black" stroke-width="0.596953" stroke-linecap="round" stroke-linejoin="round"/>
</svg>
