<svg width="74" height="74" viewBox="0 0 74 74" fill="none" xmlns="http://www.w3.org/2000/svg">
<path fill-rule="evenodd" clip-rule="evenodd" d="M36.9919 1.50712e-06C42.5216 -0.00157675 47.9814 1.23643 52.9697 3.62298C57.958 6.00952 62.3479 9.4839 65.8165 13.7906C69.2851 18.0973 71.7442 23.1267 73.013 28.509C74.2818 33.8913 74.3279 39.4896 73.148 44.8921C71.9681 50.2945 69.5923 55.3638 66.1951 59.7271C62.798 64.0904 58.4659 67.6366 53.5177 70.1051C48.5694 72.5735 43.1308 73.9014 37.6017 73.9909C32.0727 74.0805 26.5938 72.9295 21.5682 70.6227L3.12794 73.9585C2.6655 74.0412 2.18943 73.9998 1.74814 73.8388C1.30686 73.6777 0.916087 73.4027 0.615567 73.0416C0.315048 72.6806 0.115497 72.2464 0.037206 71.7832C-0.0410854 71.32 0.00467459 70.8443 0.169833 70.4045L5.45824 56.3268C2.02315 50.7203 0.14424 44.2995 0.0149226 37.7256C-0.114394 31.1516 1.51056 24.6619 4.7225 18.9246C7.93445 13.1873 12.6173 8.40956 18.2891 5.0833C23.9609 1.75704 30.4167 0.00240149 36.9919 1.50712e-06ZM34.9754 23.4043C35.6984 23.1065 36.4783 22.9726 37.2592 23.0121C38.04 23.0516 38.8024 23.2636 39.4916 23.6328C40.1808 24.002 40.7797 24.5193 41.2451 25.1475C41.7106 25.7758 42.0311 26.4993 42.1837 27.2661C42.3363 28.033 42.3171 28.8241 42.1275 29.5826C41.9379 30.3411 41.5827 31.0483 41.0873 31.6532C40.5919 32.2581 39.9687 32.7457 39.2624 33.0811C38.5562 33.4165 37.7844 33.5913 37.0025 33.5929C36.1206 33.5929 35.2748 33.9432 34.6512 34.5668C34.0276 35.1904 33.6773 36.0362 33.6773 36.9181V42.6641C33.6773 43.546 34.0276 44.3918 34.6512 45.0154C35.2748 45.639 36.1206 45.9893 37.0025 45.9893C37.8844 45.9893 38.7302 45.639 39.3538 45.0154C39.9774 44.3918 40.3277 43.546 40.3277 42.6641V39.7645C42.4588 39.1468 44.3758 37.9476 45.8636 36.3015C47.3514 34.6554 48.3513 32.6273 48.7511 30.4448C49.1509 28.2623 48.9349 26.0115 48.1273 23.9448C47.3196 21.8782 45.9523 20.0773 44.1786 18.7442C42.4048 17.4111 40.2948 16.5985 38.0851 16.3974C35.8754 16.1963 33.6533 16.6146 31.6681 17.6056C29.6828 18.5966 28.0128 20.121 26.8454 22.0079C25.6779 23.8948 25.0591 26.0696 25.0583 28.2884C25.0583 29.1704 25.4087 30.0161 26.0323 30.6397C26.6559 31.2633 27.5017 31.6137 28.3836 31.6137C29.2655 31.6137 30.1112 31.2633 30.7348 30.6397C31.3584 30.0161 31.7088 29.1704 31.7088 28.2884C31.7089 27.2418 32.0194 26.2187 32.6008 25.3484C33.1822 24.4782 34.0086 23.7998 34.9754 23.399V23.4043ZM37.0025 60.3544C35.7396 60.3529 34.529 59.8499 33.637 58.9559C32.745 58.0619 32.2447 56.8502 32.2461 55.5873C32.2475 54.3244 32.7506 53.1138 33.6445 52.2218C34.5385 51.3298 35.7503 50.8295 37.0131 50.8309H37.0238C38.2867 50.8323 39.4972 51.3353 40.3892 52.2293C41.2812 53.1233 41.7816 54.335 41.7802 55.5979C41.7787 56.8608 41.2757 58.0714 40.3817 58.9634C39.4877 59.8554 38.276 60.3558 37.0131 60.3544H37.0025Z" fill="#64707D"/>
</svg>
