<svg width="416" height="109" viewBox="0 0 416 109" fill="none" xmlns="http://www.w3.org/2000/svg">
<g clip-path="url(#clip0_89_559)">
<path d="M184.865 0H187.212L189.016 0.768697L190.821 2.49827L191.723 4.42001L191.904 5.18873L192.084 22.8688L195.694 21.1392L198.762 20.1783L200.567 19.794L202.913 19.6018H205.44L208.508 19.9862L211.576 20.7548L214.824 22.2922L217.351 23.8296L220.239 26.3279L222.404 28.634L224.39 31.7088L225.834 34.5914L226.916 37.6662L227.458 39.9723L227.819 42.8551V47.4672L227.097 51.6948L225.834 55.3461L224.209 58.6132L222.044 61.6878L219.517 64.3783L216.81 66.4925L214.644 67.8375L210.313 69.5671L207.425 70.1438L206.161 70.3359H201.83L198.581 69.7592L196.055 68.9908L192.626 67.4533L189.919 65.5316L187.934 63.802L185.767 61.4957L183.782 58.6132L181.797 54.5777L180.714 50.926L180.173 47.8514V4.99652L180.895 3.26696L181.978 1.72957L183.422 0.576524L184.865 0ZM202.011 32.0931L199.303 32.8618L197.138 34.207L195.333 35.7444L193.709 37.8584L192.445 40.5488L191.904 43.0472V45.9297L192.445 48.8123L193.167 50.734L194.431 52.8481L196.416 54.9619L198.401 56.3069L200.928 57.4603L202.913 57.8445H205.62L208.327 57.0757L210.493 55.9228L212.117 54.5777L213.38 53.2323L215.005 50.5419L215.907 47.6593L216.088 46.5064V43.2393L215.546 40.741L214.102 37.6662L212.839 35.9366L211.035 34.207L209.23 33.054L206.342 32.0931H202.011Z" fill="#36151E" fill-opacity="0.8"/>
<path d="M128.652 20.1547H131.553L133.366 21.1124L134.453 22.07L135.541 23.9854L135.904 25.3261L136.085 46.2029L136.629 49.0759L138.08 52.1403L139.711 54.247L141.887 55.9709L144.425 57.1201L147.326 57.6947H148.777L151.678 57.1201L154.216 55.9709L156.21 54.4387L158.023 52.3319L159.474 49.2676L160.018 46.9691L160.199 26.0922L160.562 24.1769L161.65 22.2616L163.1 20.9208L164.913 20.1547H167.451L169.265 20.9208L170.896 22.4531L171.984 24.7515L172.165 27.2414V44.479L171.984 48.1184L171.44 50.991L170.534 54.0558L168.902 57.6947L167.27 60.1849L165.276 62.6746L163.281 64.5901L160.38 66.6969L157.661 68.2291L153.853 69.5696L151.134 70.1442L147.326 70.3359L144.063 69.9529L140.618 68.995L137.898 67.8461L135.723 66.6969L133.003 64.5901L130.646 62.2917L128.652 59.8015L127.02 56.9289L125.57 53.6728L124.844 50.7998L124.301 45.437L124.119 41.223V25.9007L124.482 24.1769L125.57 22.2616L127.02 20.9208L128.652 20.1547Z" fill="#36151E" fill-opacity="0.8"/>
<path d="M238.337 20.1547H241.044L243.21 21.3039L244.473 22.6446L245.376 24.7515L245.556 26.0922L245.737 46.7775L246.278 49.2676L247.542 51.949L248.805 53.6728L250.609 55.3963L253.497 56.9289L255.482 57.5035L258.189 57.6947L261.077 57.1201L263.423 56.1626L265.95 54.247L267.213 52.7149L268.296 50.7998L269.198 48.5013L269.56 46.3945L269.74 25.3261L270.281 23.6023L271.364 22.07L272.628 20.9208L274.432 20.1547H276.959L278.583 20.9208L280.027 22.07L281.11 23.9854L281.471 25.1345V47.5438L280.93 50.7998L280.027 53.8641L278.764 56.9289L277.14 59.6103L275.696 61.5254L272.988 64.3984L270.462 66.3136L267.574 68.0374L264.145 69.3783L261.979 69.9529L258.551 70.3359H256.746L252.956 69.7612L250.068 68.995L246.639 67.4628L243.752 65.5477L241.766 63.8238L239.24 61.1424L237.254 58.0777L235.81 55.205L234.728 51.949L234.186 48.5013L233.825 42.9468V25.3261L234.547 23.2192L236.171 21.3039L238.337 20.1547Z" fill="#36151E" fill-opacity="0.8"/>
<path d="M372.668 20.1547H375.388L377.563 21.3039L378.833 22.8362L379.558 24.3684L379.739 25.1345L379.92 45.6282L380.283 48.3096L381.19 50.7998L382.458 52.9066L383.546 54.247L385.541 55.7796L387.354 56.7372L389.711 57.5035L392.612 57.6947L395.513 57.1201L398.413 55.7796L400.227 54.247L401.859 52.3319L403.308 49.2676L403.853 47.1604L404.033 45.2453V34.1365L404.217 24.943L404.942 23.0277L406.391 21.3039L408.205 20.3462L408.749 20.1547H411.468L413.642 21.3039L415.095 23.0277L415.82 24.7515L416 25.9007V46.0116L415.636 49.4589L414.731 53.0982L413.282 56.7372L411.468 59.8015L409.294 62.4829L407.116 64.5901L405.122 66.1223L402.219 67.8461L400.045 68.8037L396.238 69.9529L392.793 70.3359H391.161L388.079 69.9529L384.997 69.1866L382.096 68.0374L379.92 66.8882L377.02 64.7814L374.663 62.4829L373.212 60.7595L371.399 57.8864L369.948 55.0133L368.861 51.5656L368.498 49.4589L368.135 44.8624L367.954 39.6909V28.7736L368.135 24.943L368.861 23.0277L370.311 21.3039L372.124 20.3462L372.668 20.1547Z" fill="#36151E" fill-opacity="0.8"/>
<path d="M339.308 6.16982L341.642 6.36186L343.079 7.12996L344.515 8.4742L345.593 10.7786L345.772 11.7388V19.6121H352.955L354.571 20.1882L356.187 21.5324L357.265 23.0686L357.803 24.989V26.9093L357.265 28.8296L356.187 30.3659L354.751 31.5181L352.775 32.2862L345.772 32.4782L345.952 46.1124L346.491 48.8012L347.209 50.7212L348.645 53.0258L350.082 54.5621L352.596 56.2901L354.751 57.0584L356.546 57.4426L359.24 57.6343L361.035 58.5947L362.652 60.3231L363.37 62.051L363.549 62.8194V64.7398L362.831 66.852L361.215 68.7724L359.419 69.7324L358.88 69.9245H355.11L352.057 69.3483L349.184 68.3882L345.772 66.6599L343.617 65.1236L341.283 63.0115L339.128 60.5147L337.871 58.5947L336.076 55.138L334.998 51.8733L334.28 48.417L334.1 47.0728L333.921 29.5977V21.5324L334.1 11.1627L334.819 9.24234L336.435 7.32201L338.231 6.36186L339.308 6.16982Z" fill="#36151E" fill-opacity="0.8"/>
<path d="M184.826 0H187.152L188.942 0.7681L190.731 2.49633L191.626 4.4166L191.805 5.1847L191.984 22.851V23.4271L191.805 41.4776H192.163L191.984 43.0139V45.8939L192.521 48.7744L193.237 50.6949L194.49 52.807L196.279 54.727L198.248 56.0712L200.753 57.2238L201.469 57.4154L202.006 58.3759L203.08 59.7201L203.617 60.8722L203.796 61.6401V64.3285L202.901 66.6327L201.827 67.9769L199.68 69.129L197.532 69.5132L194.49 68.3611L191.626 66.8248L189.121 64.9048L186.973 62.7922L185.721 61.448L183.752 58.568L181.784 54.5354L180.71 50.8865L180.173 47.8144V4.99265L180.889 3.26443L181.963 1.72823L183.394 0.576075L184.826 0Z" fill="#64707D"/>
<path d="M315.914 20.1547L316.638 20.5393L325.513 29.9602L325.151 30.7293L322.434 33.6133L321.709 33.2287L318.812 30.1525L318.449 29.9602V61.1071L317.725 62.2608L317.181 62.6454L315.551 62.8375L314.465 62.2608L292.729 39.189L292.367 38.9967V70.3359H287.658L287.477 32.6519L287.839 31.3061L288.926 30.3447L289.469 30.1525H290.737L292.367 31.4983L313.377 53.8012V30.1525L311.385 32.0751L310.118 33.6133L309.393 33.2287L306.676 30.3447L307.038 29.5757L315.914 20.1547Z" fill="#36151E" fill-opacity="0.8"/>
<path d="M339.34 6.16982L341.688 6.36235L343.133 7.13247L344.578 8.4802L345.661 10.7906L345.842 11.7533V19.6472H353.067L354.693 20.2247L356.318 21.5725L357.402 23.1127L357.944 25.038V26.9634L357.402 28.8887L356.318 30.429L354.873 31.5842L352.886 32.3543L345.842 32.5469L345.661 33.317V32.3543H340.424L338.436 32.1618L336.811 31.3916L335.366 30.0439L334.282 28.5037L334.101 29.6589H333.921V21.5725L334.101 11.1757L334.824 9.25036L336.45 7.32501L338.256 6.36235L339.34 6.16982Z" fill="#36151E" fill-opacity="0.8"/>
<path d="M184.905 0H187.27L189.091 0.764707L190.91 2.4853L191.82 4.39706L192.002 5.16179L192.184 22.9412L189.819 24.6618L187.817 26.3824L185.632 28.6766L184.359 30.5884L182.539 33.8384L181.265 37.2796L180.355 40.7208H180.173V4.97061L180.901 3.25001L181.993 1.7206L183.449 0.573533L184.905 0Z" fill="#36151E" fill-opacity="0.8"/>
<path d="M228.62 86.7887H237.135L239.441 87.5538L241.037 88.7009L242.101 90.4219L242.456 91.5695L242.634 92.9079V94.4376L242.101 96.7324L241.215 98.2625L239.795 99.6009L238.199 100.366L236.248 100.749L233.055 100.94L232.877 108.589H228.797L228.62 108.397V86.7887ZM232.877 90.6132V96.9236H235.716L237.135 96.3503L238.022 95.2027L238.199 94.8201V92.5254L237.489 91.3782L236.78 90.8044L235.893 90.6132H232.877Z" fill="#36151E" fill-opacity="0.8"/>
<path d="M251.7 91.7245H254.385L255.996 92.1042L257.607 93.0535L259.039 94.3825L260.292 97.04L260.65 98.9383V101.596L260.113 104.254L259.039 106.152L257.786 107.481L255.996 108.43L254.564 108.81L252.774 109L250.448 108.62L248.657 107.671L247.226 106.342L246.151 104.444L245.615 102.546L245.436 101.217V99.3184L245.972 96.4704L247.047 94.3825L248.657 92.8635L250.09 92.1042L251.7 91.7245ZM251.879 95.5215L250.806 96.2807L250.09 97.6097L249.91 98.5586V102.166L250.448 103.874L251.7 105.014L252.058 105.203H253.848L255.28 104.444L255.996 103.115L256.354 100.267L256.175 98.179L255.459 96.4704L254.564 95.7111L254.206 95.5215H251.879Z" fill="#36151E" fill-opacity="0.8"/>
<path d="M294.406 91.7245H298.102L300.135 92.2942L301.244 93.0535L302.352 94.3825L303.092 96.4704V108.43L302.907 108.62H299.95L299.211 106.722V106.342L297.732 107.671L296.624 108.43L293.667 109L291.45 108.62L289.971 107.481L289.232 106.532L288.678 105.014V102.546L289.417 100.647L290.71 99.508L292.558 98.7487L294.591 98.369L298.657 98.179L298.287 96.2807L297.732 95.5215L297.178 95.3314H294.591L291.635 96.2807L290.156 93.2431L292.004 92.2942L294.406 91.7245ZM295.33 101.027L293.852 101.786L293.297 102.735V104.634L294.037 105.393L294.406 105.583H296.07L297.363 105.014L298.472 103.685L298.657 102.925V101.027H295.33Z" fill="#36151E" fill-opacity="0.8"/>
<path d="M345.933 19.7434H353.104L354.717 20.3143L356.331 21.6465L357.406 23.169L357.944 25.0721V26.9753L357.406 28.8784L356.331 30.4009L354.896 31.5428L352.925 32.304L345.933 32.4943V19.7434Z" fill="#64707D"/>
<path d="M345.75 19.3321H345.932V33.317H345.75V32.3591H340.473L338.471 32.1675L336.833 31.4013L335.377 30.0602L334.285 28.5276L334.103 29.6771H333.921V21.6309H334.103L334.285 23.9299L335.377 22.0141L337.015 20.6731L338.835 19.9068L345.75 19.7152V19.3321Z" fill="#36151E" fill-opacity="0.8"/>
<path d="M279.14 88.434H282.081V92.0519H286.492V95.2894L286.308 95.4799H282.081L282.265 104.049L282.633 104.811L283 105.001H285.022L286.676 104.811V108.238L284.654 108.81L282.265 109L280.243 108.619L279.14 107.857L278.405 106.905L277.854 105.572L277.67 104.62L277.486 95.4799H275.832L275.465 95.099V93.5755L277.119 92.4328L278.038 91.6711L279.14 88.434Z" fill="#36151E" fill-opacity="0.8"/>
<path d="M307.279 85.1434L311.5 85.3355V108.589H307.279L307.096 108.397V85.3355L307.279 85.1434Z" fill="#36151E" fill-opacity="0.8"/>
<path d="M271.761 91.7245H274.085L274.264 91.9142V94.1879L274.085 96.0829H271.761L270.152 96.6513L268.901 98.1671L268.723 98.7355L268.544 102.904V108.399L268.365 108.589H264.254V92.1034H267.471L268.008 94.1879V94.7564L269.795 92.8614L271.225 91.9142L271.761 91.7245Z" fill="#36151E" fill-opacity="0.8"/>
<path d="M79.0337 20.1547H79.2763L79.2159 20.618L78.6093 22.8183L77.7 26.003L76.9116 28.8404L76.305 30.9828L76.0628 32.1409H75.8806L75.1531 31.3882L73.516 29.8247L73.2129 29.8827L72.4854 30.5775L72.061 31.0407L71.1513 31.9672L69.1502 33.8781L68.7258 34.3413L67.9983 35.0361L67.5739 35.4994L67.0281 36.0205L66.6037 36.4837L65.8762 37.2365L65.4518 37.6997L64.7239 38.5104L63.8146 39.4369L63.2689 40.0159L63.2081 43.6638L63.1476 49.2228L63.0263 52.2916L62.7836 54.7238L62.4201 56.8659L62.0561 58.4874L61.6317 59.9352L60.9042 62.0198L60.2372 63.6408L59.4488 65.2042L58.6605 66.5361L57.933 67.6944L57.0842 68.8522L56.4776 69.6049L55.8109 70.3577L55.3865 70.8212L54.8408 71.3999L54.1738 72.0951L53.6885 72.5002L53.2641 72.9058L52.5971 73.4269L51.3843 74.2952L50.4142 74.9324L49.5653 75.4535L47.8068 76.3798L46.0488 77.1905L44.5934 77.7697L42.5926 78.4064L41.319 78.7539L39.1363 79.2171L37.5598 79.4487L36.0439 79.6227L34.1643 79.7382L32.224 79.7962H29.1316L27.6764 79.7382L25.1904 79.5067L23.5532 79.2751L21.4917 78.8699L19.9758 78.4644L17.793 77.7697L16.0346 77.0745L14.5187 76.3798L13.0029 75.5691L12.154 75.0479L11.3051 74.4692L10.6381 74.0057L10.0318 73.5425L9.30419 72.9058L8.0915 71.7475L7.78833 71.5159L7.36388 71.0528L6.5756 70.2421L6.15119 69.7789L5.60547 69.2578L5.66609 69.0262L6.21181 68.3891L6.33309 68.2155H6.45436L6.5756 67.9839L7.30322 67.2308L7.84895 66.6521L8.63718 65.8414L9.12225 65.2622L9.66797 64.6255L10.6381 63.6408L11.1838 63.0621H11.3051L11.4264 62.8301L12.0933 62.1933L12.5784 61.6142L13.1241 61.0351L13.6699 60.3983L14.5794 59.4716L15.1857 58.8929L15.307 58.7189H15.4282L15.5495 58.4874L16.2165 57.7926L16.7016 57.2135L17.3079 56.5768L17.7324 56.1132L18.2781 55.5921L18.7025 55.1289L19.5514 54.2602L20.0365 53.6815L20.7641 52.8708L22.2193 51.3653L22.765 50.7862L23.3107 50.1491L23.8564 49.5703L24.2809 49.1068L25.7361 47.6013L26.2818 46.9646L26.7062 46.4435H26.8275L26.9488 46.2119L27.8583 45.2852L28.5859 44.5325L29.1316 43.8953L29.6773 43.3166L30.2231 42.6795L30.7081 42.2163L31.1326 41.7532L31.3751 41.6372L31.6783 42.3319L32.3453 43.9533L32.7091 44.764L33.0729 45.6328L33.7398 47.1382L34.043 47.8329L34.2856 48.412L34.8313 49.6279L35.1344 50.3806L35.4376 51.0758L36.0439 52.4076L36.7716 54.1446L37.0747 54.8393L37.3173 55.3025L37.5598 55.9396L37.7417 56.3448L37.9842 56.8659L38.3481 57.7346L38.53 58.0242L38.7119 58.6613L39.0757 58.6033L39.7427 57.9082L40.6524 57.0399L41.0768 56.5768L41.6225 55.9976L42.2891 55.1869L43.017 54.4342L43.4415 53.9711L44.472 52.9863L44.8965 52.5232L45.3817 51.9441L45.9274 51.3073L46.4732 50.7282L47.3824 49.8595L47.8068 49.3963L48.4739 48.6436L48.9592 48.0645L49.3836 47.6013L50.1111 46.8486L50.7781 46.2119L51.2025 45.7483L51.8696 45.0536L52.4153 44.3589L53.325 43.4322L53.9916 42.7375L54.5373 42.1003L55.1439 41.4636L55.6896 40.8266L56.1745 40.3634L56.5989 39.9001L57.0842 39.4369L57.5086 38.9736L58.8427 37.4681L59.3884 36.8891L59.8732 36.4259L60.2977 35.9626L60.8434 35.3836L61.2678 34.8624L61.9348 34.1676L62.3592 33.7043L63.6933 32.4305L64.239 31.7935L64.9061 31.0987L65.3305 30.6354L66.1793 29.7668L66.7855 29.1299L67.2099 28.6667L67.9378 27.856L68.544 27.2191L69.0897 26.5821L69.5141 26.2347L69.4537 25.9452L68.2409 24.7871L67.9983 24.4976L67.5134 24.0922L66.8464 23.4553V23.3395L67.8165 23.0499L69.575 22.5867L72.0001 21.9498L74.3043 21.3707L76.9721 20.6759L79.0337 20.1547Z" fill="#36151E" fill-opacity="0.8"/>
<path d="M7.99685 10.6943H12.7711L18.3808 10.7523L19.455 10.984L20.0518 11.2737L20.7083 11.6792L21.126 12.1426L21.7228 13.1854L21.9018 13.8806L21.9615 14.3441L22.0212 15.6186V43.1364L21.4841 43.774L21.0663 44.2371L20.3502 45.0483L19.5744 45.8594L19.1566 46.3229L18.6195 46.9021L18.2018 47.3656L17.6647 47.9448L17.1276 48.5823L16.7098 48.9879L16.2921 49.451L15.6356 50.1462L14.9792 50.8993L12.8308 53.2167L12.2937 53.8542L11.5178 54.6649L10.9808 55.3025L10.5033 55.7656L10.0856 56.2292L9.54846 56.8087L9.01138 57.4459L8.59362 57.8514L8.1759 58.315L7.10167 59.4737L6.68395 59.9368L5.90812 60.806L5.371 61.3851L4.95328 61.8487L4.29681 62.5438L3.75971 63.1813L3.34197 63.5869L2.92422 64.166L2.74519 64.05L2.26776 62.6598L1.43227 60.1688L1.0742 58.9521L0.358068 55.3605L0.179034 53.9698L0.0596778 52.058L0 48.0608V16.2558L0.0596778 14.3441L0.29839 13.1854L0.596778 12.664L0.954846 12.0847L1.43227 11.6212L2.56615 10.9261L2.9839 10.8102L3.46132 10.7523L7.99685 10.6943Z" fill="#36151E" fill-opacity="0.8"/>
<path d="M48.0522 10.6943H52.9813L59.5336 10.7526L60.6155 10.9855L61.2165 11.2766L61.8779 11.7423L62.2386 12.1499L62.8396 13.0233L63.1403 13.8966L63.2604 14.77V24.668L62.6594 25.3084L62.1181 25.9489L61.6373 26.4147L61.2165 26.8805L60.4954 27.6956L59.894 28.3361L59.4736 28.8018L58.8121 29.5005L58.3913 29.9663L57.3095 31.1308L57.2494 31.2472H57.1289L57.0088 31.4801L56.4679 32.0624L56.0471 32.5281L55.3857 33.2268L54.9649 33.6926L54.3038 34.3913L53.7629 35.0317L53.0414 35.7886L52.6206 36.2545L51.8995 37.0113L51.4787 37.4772L50.9378 38.0594L50.517 38.5252L49.9757 39.1656H49.8555L49.7354 39.3985L49.3146 39.8643L49.0139 40.1554L48.473 40.7377L48.0522 41.2036L47.4512 41.8441L46.9103 42.4845L46.0687 43.3577L45.6479 43.8233L45.107 44.4058L44.5656 45.0462L43.9046 45.745L43.4838 46.2107L42.9429 46.7931L42.5221 47.2587L41.8607 47.9575L41.4398 48.4231L41.019 48.9472L40.8389 48.8888V44.8134L40.8989 39.2821L40.959 14.5953L41.3197 13.2562L41.8607 12.2664L42.4016 11.6841L43.4238 11.0437L44.2053 10.8108L44.7462 10.7526L48.0522 10.6943Z" fill="#36151E" fill-opacity="0.8"/>
<path d="M79.0337 20.1547H79.2763L79.2159 20.6159L78.6093 22.8068L77.7 25.9777L76.9116 28.8026L76.305 30.9358L76.0628 32.0888H75.8806L75.1531 31.3394L73.516 29.7827L73.2129 29.8404L72.4854 30.5322L72.061 30.9934L71.1513 31.9159L69.1502 33.8184L68.7258 34.2796L67.9983 34.9715L67.5739 35.4327L67.0281 35.9516L66.6037 36.4128L65.8762 37.1623L65.4518 37.6235L64.7239 38.4306L63.8146 39.3531L63.2689 39.9296L63.2081 43.5618L63.1476 49.0965H63.0867V40.6214L63.0263 40.2755L62.8445 40.4485L62.6019 40.5638L61.8744 41.2555L61.8135 41.3711H61.6922L61.5709 41.6014L60.8434 42.2932L60.419 42.7547H60.2977L60.1763 42.9851H60.055L59.9341 43.2158L59.5702 43.6193L59.2671 43.9077H59.1458L59.0244 44.1384L58.1756 45.003L57.4477 45.7524L57.1446 46.0984L56.8415 46.3867L56.4171 46.8478L56.114 47.1361L55.6896 47.5972L55.447 47.828H55.3257L55.2044 48.0587L54.5982 48.635L54.1738 49.0965L53.5672 49.6727L53.4459 49.8459H53.325L53.2036 50.0767L52.3544 50.8837L51.93 51.3448L51.0812 52.2098L51.0207 52.3249H50.8994L50.8386 52.4981H50.7176L50.5963 52.7284L49.9293 53.3627L49.5049 53.8238L49.1409 54.2273L48.8378 54.5156H48.7165L48.5952 54.7464L48.1103 55.2075L47.9282 55.4382H47.8068L47.6859 55.669L47.2615 56.0725L46.8367 56.5336L46.291 57.0527L46.1701 57.2254H46.0488L45.9274 57.4562L45.503 57.9173L45.2604 58.148H45.1391L45.0178 58.3783L44.7751 58.6667L44.5329 58.8974H44.4116L44.2903 59.1278L43.8659 59.5317L43.4415 59.9928L42.7744 60.627L42.35 61.0881L41.9256 61.4916L41.5012 61.9531L40.8946 62.5294L40.8341 62.645H40.7128L40.5915 62.8753L39.6214 63.8555L39.1363 64.3166L38.2874 65.2392L38.0449 65.1816L37.7417 64.4322L37.4386 63.7403L34.6494 57.1102L33.8611 55.2075L33.4367 54.1697L33.1335 53.5355L32.7091 52.4401L32.2846 51.4023L31.9814 50.7105L31.3751 49.2692L30.7081 47.6552L30.405 46.9634L30.1624 46.4443L29.9199 46.5599L27.6158 48.7506H27.4945V48.8657H27.3732V48.9809L26.8882 49.3848L25.7361 50.4802H25.6148V50.5953L25.3117 50.8837L24.7053 51.4023L24.3415 51.7483H24.2202L24.099 51.979L23.7352 52.2674L22.098 53.8238H21.9768L21.8555 54.0545H21.7342L21.6129 54.2853L21.3704 54.5156H21.2492L21.1279 54.7464H21.0066V54.8616L20.7034 55.1499L20.5215 55.2075V55.3231L20.0365 55.7266L19.1269 56.5912H19.0057L18.8844 56.8219H18.7631V56.9371H18.6419V57.0527H18.5206L18.3993 57.283H18.2781L18.1568 57.5137L17.6717 57.9173L17.126 58.4359H17.0047L16.8835 58.6667H16.7622L16.6409 58.8974H16.5197V59.0126H16.3984V59.1278H16.2771V59.2434L16.0346 59.4737H15.9133V59.5893L15.6102 59.762L15.3676 60.0504H15.2463V60.1655L14.7613 60.5695L14.0943 61.2033H13.973V61.3189H13.8518V61.434H13.7305V61.5492H13.6092V61.6648H13.4879V61.78H13.3667V61.8951H13.2454V62.0107H13.1241V62.1259H13.0029V62.2411H12.8816V62.3566H12.7603V62.4718L12.3359 62.7601L11.9721 63.1637L11.6083 63.452L11.5477 63.5672H11.4264L11.3051 63.7979L10.8807 64.1438L10.82 64.259H10.6988L10.5775 64.4897L10.0924 64.8933L9.84987 65.1816L9.5467 65.4119H9.42542L9.30419 65.6427H9.18291L9.06163 65.8734L8.87974 65.931L8.81908 66.1038H8.69784L8.63718 66.2769L8.33401 66.5077L8.27339 66.6229H8.15212L8.0915 66.7956L7.78833 67.0839H7.66705L7.54577 67.3147L7.2426 67.4299L6.45436 68.2373L6.27243 68.5252L5.84802 68.8711V68.9867H5.72675L5.66609 69.1019L5.60547 68.8711L6.27243 68.1217L6.33309 68.0065H6.45436L6.5756 67.7758L7.30322 67.0264L7.84895 66.4497L8.63718 65.6427L9.12225 65.066L9.66797 64.4322L10.6381 63.452L11.1838 62.8753H11.3051L11.4264 62.645L12.0933 62.0107L12.5784 61.434L13.1241 60.8574L13.6699 60.2235L14.5794 59.3009L15.1857 58.7243L15.307 58.5515H15.4282L15.5495 58.3208L16.2165 57.6289L16.7016 57.0527L17.3079 56.4184L17.7324 55.9569L18.2781 55.4382L18.7025 54.9771L19.5514 54.1121L20.0365 53.5355L20.7641 52.7284L22.2193 51.2296L22.765 50.6529L23.3107 50.0187L23.8564 49.4424L24.2809 48.9809L25.7361 47.4821L26.2818 46.8478L26.7062 46.3291H26.8275L26.9488 46.0984L27.8583 45.1762L28.5859 44.4263L29.1316 43.7925L29.6773 43.2158L30.2231 42.5816L30.7081 42.1205L31.1326 41.6594L31.3751 41.5438L31.6783 42.2357L32.3453 43.8501L32.7091 44.6571L33.0729 45.5221L33.7398 47.021L34.043 47.7128L34.2856 48.2891L34.8313 49.5L35.1344 50.2494L35.4376 50.9413L36.0439 52.2674L36.7716 53.997L37.0747 54.6888L37.3173 55.1499L37.5598 55.7841L37.7417 56.1877L37.9842 56.7067L38.3481 57.5713L38.53 57.8597L38.7119 58.4939L39.0757 58.4359L39.7427 57.7445L40.6524 56.8795L41.0768 56.4184L41.6225 55.8417L42.2891 55.0347L43.017 54.2853L43.4415 53.8238L44.472 52.8436L44.8965 52.3825L45.3817 51.8063L45.9274 51.172L46.4732 50.5953L47.3824 49.7307L47.8068 49.2692L48.4739 48.5198L48.9592 47.9431L49.3836 47.4821L50.1111 46.7326L50.7781 46.0984L51.2025 45.6373L51.8696 44.9454L52.4153 44.2536L53.325 43.331L53.9916 42.6392L54.5373 42.0049L55.1439 41.3711L55.6896 40.7368L56.1745 40.2755L56.5989 39.8143L57.0842 39.3531L57.5086 38.8919L58.8427 37.3929L59.3884 36.8164L59.8732 36.3551L60.2977 35.8939L60.8434 35.3174L61.2678 34.7985L61.9348 34.1067L62.3592 33.6455L63.6933 32.3771L64.239 31.7429L64.9061 31.0511L65.3305 30.5898L66.1793 29.7251L66.7855 29.0909L67.2099 28.6297L67.9378 27.8225L68.544 27.1883L69.0897 26.5542L69.5141 26.2083L69.4537 25.92L68.2409 24.7669L67.9983 24.4787L67.5134 24.0751L66.8464 23.4409V23.3256L67.8165 23.0373L69.575 22.5761L72.0001 21.942L74.3043 21.3654L76.9721 20.6736L79.0337 20.1547Z" fill="#64707D"/>
<path d="M40.9534 30.4377H41.0106L41.0675 48.2376L41.1247 48.5334L41.2393 48.5922L41.0106 48.9472L40.8389 48.8879V44.7484L40.8961 39.1307L40.9534 30.4377Z" fill="#A5C4D4"/>
<path d="M6.22831 68.6906L6.40624 68.7654L5.96137 68.9896L5.7834 69.027L5.69443 69.1019L5.60547 68.9522L6.22831 68.6906Z" fill="#A5C4D4"/>
<line x1="97.2441" y1="11.8478" x2="97.2441" y2="75.8261" stroke="#36151E" stroke-opacity="0.8"/>
</g>
<defs>
<clipPath id="clip0_89_559">
<rect width="416" height="109" fill="white"/>
</clipPath>
</defs>
</svg>
